<svg class="main-svg" xmlns="http://www.w3.org/2000/svg" xmlns:xlink="http://www.w3.org/1999/xlink" width="700" height="500" viewBox="0 0 700 500"><rect x="0" y="0" width="700" height="500" style="fill: rgb(255, 255, 255); fill-opacity: 1;"/><defs id="defs-b252c7"><g class="clips"><clipPath id="clipb252c7xyplot" class="plotclip"><rect width="638" height="255"/></clipPath><clipPath class="axesclip" id="clipb252c7x"><rect x="55" y="0" width="638" height="500"/></clipPath><clipPath class="axesclip" id="clipb252c7y"><rect x="0" y="27" width="700" height="255"/></clipPath><clipPath class="axesclip" id="clipb252c7xy"><rect x="55" y="27" width="638" height="255"/></clipPath></g><g class="gradients"/></defs><g class="bglayer"><rect class="bg" x="55" y="27" width="638" height="255" style="fill: rgb(235, 235, 235); fill-opacity: 1; stroke-width: 0;"/></g><g class="layer-below"><g class="imagelayer"/><g class="shapelayer"/></g><g class="cartesianlayer"><g class="subplot xy"><g class="layer-subplot"><g class="shapelayer"/><g class="imagelayer"/></g><g class="gridlayer"><g class="x"><path class="xgrid crisp" transform="translate(72.24,0)" d="M0,27v255" style="stroke: rgb(255, 255, 255); stroke-opacity: 1; stroke-width: 0.664176px;"/><path class="xgrid crisp" transform="translate(100.97999999999999,0)" d="M0,27v255" style="stroke: rgb(255, 255, 255); stroke-opacity: 1; stroke-width: 0.664176px;"/><path class="xgrid crisp" transform="translate(129.72,0)" d="M0,27v255" style="stroke: rgb(255, 255, 255); stroke-opacity: 1; stroke-width: 0.664176px;"/><path class="xgrid crisp" transform="translate(158.45999999999998,0)" d="M0,27v255" style="stroke: rgb(255, 255, 255); stroke-opacity: 1; stroke-width: 0.664176px;"/><path class="xgrid crisp" transform="translate(187.2,0)" d="M0,27v255" style="stroke: rgb(255, 255, 255); stroke-opacity: 1; stroke-width: 0.664176px;"/><path class="xgrid crisp" transform="translate(215.94,0)" d="M0,27v255" style="stroke: rgb(255, 255, 255); stroke-opacity: 1; stroke-width: 0.664176px;"/><path class="xgrid crisp" transform="translate(244.68,0)" d="M0,27v255" style="stroke: rgb(255, 255, 255); stroke-opacity: 1; stroke-width: 0.664176px;"/><path class="xgrid crisp" transform="translate(273.40999999999997,0)" d="M0,27v255" style="stroke: rgb(255, 255, 255); stroke-opacity: 1; stroke-width: 0.664176px;"/><path class="xgrid crisp" transform="translate(302.15,0)" d="M0,27v255" style="stroke: rgb(255, 255, 255); stroke-opacity: 1; stroke-width: 0.664176px;"/><path class="xgrid crisp" transform="translate(330.89,0)" d="M0,27v255" style="stroke: rgb(255, 255, 255); stroke-opacity: 1; stroke-width: 0.664176px;"/><path class="xgrid crisp" transform="translate(359.63,0)" d="M0,27v255" style="stroke: rgb(255, 255, 255); stroke-opacity: 1; stroke-width: 0.664176px;"/><path class="xgrid crisp" transform="translate(388.37,0)" d="M0,27v255" style="stroke: rgb(255, 255, 255); stroke-opacity: 1; stroke-width: 0.664176px;"/><path class="xgrid crisp" transform="translate(417.11,0)" d="M0,27v255" style="stroke: rgb(255, 255, 255); stroke-opacity: 1; stroke-width: 0.664176px;"/><path class="xgrid crisp" transform="translate(445.85,0)" d="M0,27v255" style="stroke: rgb(255, 255, 255); stroke-opacity: 1; stroke-width: 0.664176px;"/><path class="xgrid crisp" transform="translate(474.59,0)" d="M0,27v255" style="stroke: rgb(255, 255, 255); stroke-opacity: 1; stroke-width: 0.664176px;"/><path class="xgrid crisp" transform="translate(503.32,0)" d="M0,27v255" style="stroke: rgb(255, 255, 255); stroke-opacity: 1; stroke-width: 0.664176px;"/><path class="xgrid crisp" transform="translate(532.06,0)" d="M0,27v255" style="stroke: rgb(255, 255, 255); stroke-opacity: 1; stroke-width: 0.664176px;"/><path class="xgrid crisp" transform="translate(560.8,0)" d="M0,27v255" style="stroke: rgb(255, 255, 255); stroke-opacity: 1; stroke-width: 0.664176px;"/><path class="xgrid crisp" transform="translate(589.54,0)" d="M0,27v255" style="stroke: rgb(255, 255, 255); stroke-opacity: 1; stroke-width: 0.664176px;"/><path class="xgrid crisp" transform="translate(618.28,0)" d="M0,27v255" style="stroke: rgb(255, 255, 255); stroke-opacity: 1; stroke-width: 0.664176px;"/><path class="xgrid crisp" transform="translate(647.02,0)" d="M0,27v255" style="stroke: rgb(255, 255, 255); stroke-opacity: 1; stroke-width: 0.664176px;"/><path class="xgrid crisp" transform="translate(675.76,0)" d="M0,27v255" style="stroke: rgb(255, 255, 255); stroke-opacity: 1; stroke-width: 0.664176px;"/></g><g class="y"><path class="ygrid crisp" transform="translate(0,270.40999999999997)" d="M55,0h638" style="stroke: rgb(255, 255, 255); stroke-opacity: 1; stroke-width: 0.664176px;"/><path class="ygrid crisp" transform="translate(0,206.34)" d="M55,0h638" style="stroke: rgb(255, 255, 255); stroke-opacity: 1; stroke-width: 0.664176px;"/><path class="ygrid crisp" transform="translate(0,142.26)" d="M55,0h638" style="stroke: rgb(255, 255, 255); stroke-opacity: 1; stroke-width: 0.664176px;"/><path class="ygrid crisp" transform="translate(0,78.19)" d="M55,0h638" style="stroke: rgb(255, 255, 255); stroke-opacity: 1; stroke-width: 0.664176px;"/></g></g><g class="zerolinelayer"/><path class="xlines-below"/><path class="ylines-below"/><g class="overlines-below"/><g class="xaxislayer-below"/><g class="yaxislayer-below"/><g class="overaxes-below"/><g class="plot" transform="translate(55, 27)" clip-path="url(#clipb252c7xyplot)"><g class="scatterlayer mlayer"><g class="trace scatter trace922671" style="stroke-miterlimit: 2; opacity: 1;"><g class="fills"/><g class="errorbars"><g class="errorbar" style="opacity: 1;"><path class="yerror" d="M17.24,55.37h0m-0,0V91.05m-0,0h0" style="vector-effect: non-scaling-stroke; stroke-width: 2px; stroke: rgb(0, 0, 0); stroke-opacity: 1;"/></g><g class="errorbar" style="opacity: 1;"><path class="yerror" d="M45.98,59.75h0m-0,0V107.3m-0,0h0" style="vector-effect: non-scaling-stroke; stroke-width: 2px; stroke: rgb(0, 0, 0); stroke-opacity: 1;"/></g><g class="errorbar" style="opacity: 1;"><path class="yerror" d="M74.72,16.62h0m-0,0V163.77m-0,0h0" style="vector-effect: non-scaling-stroke; stroke-width: 2px; stroke: rgb(0, 0, 0); stroke-opacity: 1;"/></g><g class="errorbar" style="opacity: 1;"><path class="yerror" d="M103.46,59.93h0m-0,0V138.79m-0,0h0" style="vector-effect: non-scaling-stroke; stroke-width: 2px; stroke: rgb(0, 0, 0); stroke-opacity: 1;"/></g><g class="errorbar" style="opacity: 1;"><path class="yerror" d="M132.2,147.34h0m-0,0V177.43m-0,0h0" style="vector-effect: non-scaling-stroke; stroke-width: 2px; stroke: rgb(0, 0, 0); stroke-opacity: 1;"/></g><g class="errorbar" style="opacity: 1;"><path class="yerror" d="M160.94,148.04h0m-0,0V196.68m-0,0h0" style="vector-effect: non-scaling-stroke; stroke-width: 2px; stroke: rgb(0, 0, 0); stroke-opacity: 1;"/></g><g class="errorbar" style="opacity: 1;"><path class="yerror" d="M189.68,175.39h0m-0,0V209.44m-0,0h0" style="vector-effect: non-scaling-stroke; stroke-width: 2px; stroke: rgb(0, 0, 0); stroke-opacity: 1;"/></g><g class="errorbar" style="opacity: 1;"><path class="yerror" d="M218.41,11.59h0m-0,0V242.31m-0,0h0" style="vector-effect: non-scaling-stroke; stroke-width: 2px; stroke: rgb(0, 0, 0); stroke-opacity: 1;"/></g><g class="errorbar" style="opacity: 1;"><path class="yerror" d="M247.15,204.99h0m-0,0V220.65m-0,0h0" style="vector-effect: non-scaling-stroke; stroke-width: 2px; stroke: rgb(0, 0, 0); stroke-opacity: 1;"/></g><g class="errorbar" style="opacity: 1;"><path class="yerror" d="M275.89,212.33h0m-0,0V222.02m-0,0h0" style="vector-effect: non-scaling-stroke; stroke-width: 2px; stroke: rgb(0, 0, 0); stroke-opacity: 1;"/></g><g class="errorbar" style="opacity: 1;"><path class="yerror" d="M304.63,192.51h0m-0,0V239.78m-0,0h0" style="vector-effect: non-scaling-stroke; stroke-width: 2px; stroke: rgb(0, 0, 0); stroke-opacity: 1;"/></g><g class="errorbar" style="opacity: 1;"><path class="yerror" d="M333.37,235.23h0m-0,0V240.09m-0,0h0" style="vector-effect: non-scaling-stroke; stroke-width: 2px; stroke: rgb(0, 0, 0); stroke-opacity: 1;"/></g><g class="errorbar" style="opacity: 1;"><path class="yerror" d="M362.11,235.38h0m-0,0V241.47m-0,0h0" style="vector-effect: non-scaling-stroke; stroke-width: 2px; stroke: rgb(0, 0, 0); stroke-opacity: 1;"/></g><g class="errorbar" style="opacity: 1;"><path class="yerror" d="M390.85,236.23h0m-0,0V243.17m-0,0h0" style="vector-effect: non-scaling-stroke; stroke-width: 2px; stroke: rgb(0, 0, 0); stroke-opacity: 1;"/></g><g class="errorbar" style="opacity: 1;"><path class="yerror" d="M419.59,239.85h0m-0,0V242.81m-0,0h0" style="vector-effect: non-scaling-stroke; stroke-width: 2px; stroke: rgb(0, 0, 0); stroke-opacity: 1;"/></g><g class="errorbar" style="opacity: 1;"><path class="yerror" d="M448.32,240.34h0m-0,0V242.98m-0,0h0" style="vector-effect: non-scaling-stroke; stroke-width: 2px; stroke: rgb(0, 0, 0); stroke-opacity: 1;"/></g><g class="errorbar" style="opacity: 1;"><path class="yerror" d="M477.06,238.83h0m-0,0V243.26m-0,0h0" style="vector-effect: non-scaling-stroke; stroke-width: 2px; stroke: rgb(0, 0, 0); stroke-opacity: 1;"/></g><g class="errorbar" style="opacity: 1;"><path class="yerror" d="M505.8,241.24h0m-0,0V242.99m-0,0h0" style="vector-effect: non-scaling-stroke; stroke-width: 2px; stroke: rgb(0, 0, 0); stroke-opacity: 1;"/></g><g class="errorbar" style="opacity: 1;"><path class="yerror" d="M534.54,238.87h0m-0,0V243.39m-0,0h0" style="vector-effect: non-scaling-stroke; stroke-width: 2px; stroke: rgb(0, 0, 0); stroke-opacity: 1;"/></g><g class="errorbar" style="opacity: 1;"><path class="yerror" d="M563.28,240.37h0m-0,0V243.4m-0,0h0" style="vector-effect: non-scaling-stroke; stroke-width: 2px; stroke: rgb(0, 0, 0); stroke-opacity: 1;"/></g><g class="errorbar" style="opacity: 1;"><path class="yerror" d="M592.02,161.22h0m-0,0V243.41m-0,0h0" style="vector-effect: non-scaling-stroke; stroke-width: 2px; stroke: rgb(0, 0, 0); stroke-opacity: 1;"/></g><g class="errorbar" style="opacity: 1;"><path class="yerror" d="M620.76,212.74h0m-0,0V243.41m-0,0h0" style="vector-effect: non-scaling-stroke; stroke-width: 2px; stroke: rgb(0, 0, 0); stroke-opacity: 1;"/></g></g><g class="lines"><path class="js-line" d="M17.24,73.85L45.98,84.74L74.72,102.9L103.46,103.13L132.2,163.39L160.94,175.41L189.68,194.51L218.41,199.82L247.15,213.56L275.89,217.51L304.63,225.85L333.37,238.05L362.11,239.18L390.85,241.42L419.59,241.77L620.76,243.41" style="vector-effect: non-scaling-stroke; fill: none; stroke: rgb(0, 0, 0); stroke-opacity: 0; stroke-width: 2px; opacity: 1;"/></g><g class="points"><path class="point" transform="translate(17.24,73.85)" d="M0.94,0A0.94,0.94 0 1,1 0,-0.94A0.94,0.94 0 0,1 0.94,0Z" style="opacity: 1; stroke-width: 3.77953px; fill: rgb(0, 0, 0); fill-opacity: 1; stroke: rgb(0, 0, 0); stroke-opacity: 1;"/><path class="point" transform="translate(45.98,84.74)" d="M0.94,0A0.94,0.94 0 1,1 0,-0.94A0.94,0.94 0 0,1 0.94,0Z" style="opacity: 1; stroke-width: 3.77953px; fill: rgb(0, 0, 0); fill-opacity: 1; stroke: rgb(0, 0, 0); stroke-opacity: 1;"/><path class="point" transform="translate(74.72,102.9)" d="M0.94,0A0.94,0.94 0 1,1 0,-0.94A0.94,0.94 0 0,1 0.94,0Z" style="opacity: 1; stroke-width: 3.77953px; fill: rgb(0, 0, 0); fill-opacity: 1; stroke: rgb(0, 0, 0); stroke-opacity: 1;"/><path class="point" transform="translate(103.46,103.13)" d="M0.94,0A0.94,0.94 0 1,1 0,-0.94A0.94,0.94 0 0,1 0.94,0Z" style="opacity: 1; stroke-width: 3.77953px; fill: rgb(0, 0, 0); fill-opacity: 1; stroke: rgb(0, 0, 0); stroke-opacity: 1;"/><path class="point" transform="translate(132.2,163.39)" d="M0.94,0A0.94,0.94 0 1,1 0,-0.94A0.94,0.94 0 0,1 0.94,0Z" style="opacity: 1; stroke-width: 3.77953px; fill: rgb(0, 0, 0); fill-opacity: 1; stroke: rgb(0, 0, 0); stroke-opacity: 1;"/><path class="point" transform="translate(160.94,175.41)" d="M0.94,0A0.94,0.94 0 1,1 0,-0.94A0.94,0.94 0 0,1 0.94,0Z" style="opacity: 1; stroke-width: 3.77953px; fill: rgb(0, 0, 0); fill-opacity: 1; stroke: rgb(0, 0, 0); stroke-opacity: 1;"/><path class="point" transform="translate(189.68,194.51)" d="M0.94,0A0.94,0.94 0 1,1 0,-0.94A0.94,0.94 0 0,1 0.94,0Z" style="opacity: 1; stroke-width: 3.77953px; fill: rgb(0, 0, 0); fill-opacity: 1; stroke: rgb(0, 0, 0); stroke-opacity: 1;"/><path class="point" transform="translate(218.41,199.82)" d="M0.94,0A0.94,0.94 0 1,1 0,-0.94A0.94,0.94 0 0,1 0.94,0Z" style="opacity: 1; stroke-width: 3.77953px; fill: rgb(0, 0, 0); fill-opacity: 1; stroke: rgb(0, 0, 0); stroke-opacity: 1;"/><path class="point" transform="translate(247.15,213.56)" d="M0.94,0A0.94,0.94 0 1,1 0,-0.94A0.94,0.94 0 0,1 0.94,0Z" style="opacity: 1; stroke-width: 3.77953px; fill: rgb(0, 0, 0); fill-opacity: 1; stroke: rgb(0, 0, 0); stroke-opacity: 1;"/><path class="point" transform="translate(275.89,217.51)" d="M0.94,0A0.94,0.94 0 1,1 0,-0.94A0.94,0.94 0 0,1 0.94,0Z" style="opacity: 1; stroke-width: 3.77953px; fill: rgb(0, 0, 0); fill-opacity: 1; stroke: rgb(0, 0, 0); stroke-opacity: 1;"/><path class="point" transform="translate(304.63,225.85)" d="M0.94,0A0.94,0.94 0 1,1 0,-0.94A0.94,0.94 0 0,1 0.94,0Z" style="opacity: 1; stroke-width: 3.77953px; fill: rgb(0, 0, 0); fill-opacity: 1; stroke: rgb(0, 0, 0); stroke-opacity: 1;"/><path class="point" transform="translate(333.37,238.05)" d="M0.94,0A0.94,0.94 0 1,1 0,-0.94A0.94,0.94 0 0,1 0.94,0Z" style="opacity: 1; stroke-width: 3.77953px; fill: rgb(0, 0, 0); fill-opacity: 1; stroke: rgb(0, 0, 0); stroke-opacity: 1;"/><path class="point" transform="translate(362.11,239.18)" d="M0.94,0A0.94,0.94 0 1,1 0,-0.94A0.94,0.94 0 0,1 0.94,0Z" style="opacity: 1; stroke-width: 3.77953px; fill: rgb(0, 0, 0); fill-opacity: 1; stroke: rgb(0, 0, 0); stroke-opacity: 1;"/><path class="point" transform="translate(390.85,241.42)" d="M0.94,0A0.94,0.94 0 1,1 0,-0.94A0.94,0.94 0 0,1 0.94,0Z" style="opacity: 1; stroke-width: 3.77953px; fill: rgb(0, 0, 0); fill-opacity: 1; stroke: rgb(0, 0, 0); stroke-opacity: 1;"/><path class="point" transform="translate(419.59,241.77)" d="M0.94,0A0.94,0.94 0 1,1 0,-0.94A0.94,0.94 0 0,1 0.94,0Z" style="opacity: 1; stroke-width: 3.77953px; fill: rgb(0, 0, 0); fill-opacity: 1; stroke: rgb(0, 0, 0); stroke-opacity: 1;"/><path class="point" transform="translate(448.32,242.1)" d="M0.94,0A0.94,0.94 0 1,1 0,-0.94A0.94,0.94 0 0,1 0.94,0Z" style="opacity: 1; stroke-width: 3.77953px; fill: rgb(0, 0, 0); fill-opacity: 1; stroke: rgb(0, 0, 0); stroke-opacity: 1;"/><path class="point" transform="translate(477.06,242.14)" d="M0.94,0A0.94,0.94 0 1,1 0,-0.94A0.94,0.94 0 0,1 0.94,0Z" style="opacity: 1; stroke-width: 3.77953px; fill: rgb(0, 0, 0); fill-opacity: 1; stroke: rgb(0, 0, 0); stroke-opacity: 1;"/><path class="point" transform="translate(505.8,242.36)" d="M0.94,0A0.94,0.94 0 1,1 0,-0.94A0.94,0.94 0 0,1 0.94,0Z" style="opacity: 1; stroke-width: 3.77953px; fill: rgb(0, 0, 0); fill-opacity: 1; stroke: rgb(0, 0, 0); stroke-opacity: 1;"/><path class="point" transform="translate(534.54,242.59)" d="M0.94,0A0.94,0.94 0 1,1 0,-0.94A0.94,0.94 0 0,1 0.94,0Z" style="opacity: 1; stroke-width: 3.77953px; fill: rgb(0, 0, 0); fill-opacity: 1; stroke: rgb(0, 0, 0); stroke-opacity: 1;"/><path class="point" transform="translate(563.28,242.86)" d="M0.94,0A0.94,0.94 0 1,1 0,-0.94A0.94,0.94 0 0,1 0.94,0Z" style="opacity: 1; stroke-width: 3.77953px; fill: rgb(0, 0, 0); fill-opacity: 1; stroke: rgb(0, 0, 0); stroke-opacity: 1;"/><path class="point" transform="translate(592.02,243.41)" d="M0.94,0A0.94,0.94 0 1,1 0,-0.94A0.94,0.94 0 0,1 0.94,0Z" style="opacity: 1; stroke-width: 3.77953px; fill: rgb(0, 0, 0); fill-opacity: 1; stroke: rgb(0, 0, 0); stroke-opacity: 1;"/><path class="point" transform="translate(620.76,243.41)" d="M0.94,0A0.94,0.94 0 1,1 0,-0.94A0.94,0.94 0 0,1 0.94,0Z" style="opacity: 1; stroke-width: 3.77953px; fill: rgb(0, 0, 0); fill-opacity: 1; stroke: rgb(0, 0, 0); stroke-opacity: 1;"/></g><g class="text"/></g></g></g><g class="overplot"/><path class="xlines-above crisp" d="" style="fill: none; stroke-width: 1px; stroke: rgb(0, 0, 0); stroke-opacity: 0;"/><path class="ylines-above crisp" d="" style="fill: none; stroke-width: 1px; stroke: rgb(0, 0, 0); stroke-opacity: 0;"/><g class="overlines-above"/><g class="xaxislayer-above"><path class="xtick ticks crisp" d="M0,283v3.65296803652968" transform="translate(72.24,0)" style="stroke: rgb(51, 51, 51); stroke-opacity: 1; stroke-width: 0.664176px;"/><path class="xtick ticks crisp" d="M0,283v3.65296803652968" transform="translate(100.97999999999999,0)" style="stroke: rgb(51, 51, 51); stroke-opacity: 1; stroke-width: 0.664176px;"/><path class="xtick ticks crisp" d="M0,283v3.65296803652968" transform="translate(129.72,0)" style="stroke: rgb(51, 51, 51); stroke-opacity: 1; stroke-width: 0.664176px;"/><path class="xtick ticks crisp" d="M0,283v3.65296803652968" transform="translate(158.45999999999998,0)" style="stroke: rgb(51, 51, 51); stroke-opacity: 1; stroke-width: 0.664176px;"/><path class="xtick ticks crisp" d="M0,283v3.65296803652968" transform="translate(187.2,0)" style="stroke: rgb(51, 51, 51); stroke-opacity: 1; stroke-width: 0.664176px;"/><path class="xtick ticks crisp" d="M0,283v3.65296803652968" transform="translate(215.94,0)" style="stroke: rgb(51, 51, 51); stroke-opacity: 1; stroke-width: 0.664176px;"/><path class="xtick ticks crisp" d="M0,283v3.65296803652968" transform="translate(244.68,0)" style="stroke: rgb(51, 51, 51); stroke-opacity: 1; stroke-width: 0.664176px;"/><path class="xtick ticks crisp" d="M0,283v3.65296803652968" transform="translate(273.40999999999997,0)" style="stroke: rgb(51, 51, 51); stroke-opacity: 1; stroke-width: 0.664176px;"/><path class="xtick ticks crisp" d="M0,283v3.65296803652968" transform="translate(302.15,0)" style="stroke: rgb(51, 51, 51); stroke-opacity: 1; stroke-width: 0.664176px;"/><path class="xtick ticks crisp" d="M0,283v3.65296803652968" transform="translate(330.89,0)" style="stroke: rgb(51, 51, 51); stroke-opacity: 1; stroke-width: 0.664176px;"/><path class="xtick ticks crisp" d="M0,283v3.65296803652968" transform="translate(359.63,0)" style="stroke: rgb(51, 51, 51); stroke-opacity: 1; stroke-width: 0.664176px;"/><path class="xtick ticks crisp" d="M0,283v3.65296803652968" transform="translate(388.37,0)" style="stroke: rgb(51, 51, 51); stroke-opacity: 1; stroke-width: 0.664176px;"/><path class="xtick ticks crisp" d="M0,283v3.65296803652968" transform="translate(417.11,0)" style="stroke: rgb(51, 51, 51); stroke-opacity: 1; stroke-width: 0.664176px;"/><path class="xtick ticks crisp" d="M0,283v3.65296803652968" transform="translate(445.85,0)" style="stroke: rgb(51, 51, 51); stroke-opacity: 1; stroke-width: 0.664176px;"/><path class="xtick ticks crisp" d="M0,283v3.65296803652968" transform="translate(474.59,0)" style="stroke: rgb(51, 51, 51); stroke-opacity: 1; stroke-width: 0.664176px;"/><path class="xtick ticks crisp" d="M0,283v3.65296803652968" transform="translate(503.32,0)" style="stroke: rgb(51, 51, 51); stroke-opacity: 1; stroke-width: 0.664176px;"/><path class="xtick ticks crisp" d="M0,283v3.65296803652968" transform="translate(532.06,0)" style="stroke: rgb(51, 51, 51); stroke-opacity: 1; stroke-width: 0.664176px;"/><path class="xtick ticks crisp" d="M0,283v3.65296803652968" transform="translate(560.8,0)" style="stroke: rgb(51, 51, 51); stroke-opacity: 1; stroke-width: 0.664176px;"/><path class="xtick ticks crisp" d="M0,283v3.65296803652968" transform="translate(589.54,0)" style="stroke: rgb(51, 51, 51); stroke-opacity: 1; stroke-width: 0.664176px;"/><path class="xtick ticks crisp" d="M0,283v3.65296803652968" transform="translate(618.28,0)" style="stroke: rgb(51, 51, 51); stroke-opacity: 1; stroke-width: 0.664176px;"/><path class="xtick ticks crisp" d="M0,283v3.65296803652968" transform="translate(647.02,0)" style="stroke: rgb(51, 51, 51); stroke-opacity: 1; stroke-width: 0.664176px;"/><path class="xtick ticks crisp" d="M0,283v3.65296803652968" transform="translate(675.76,0)" style="stroke: rgb(51, 51, 51); stroke-opacity: 1; stroke-width: 0.664176px;"/><g class="xtick"><text text-anchor="end" x="0" y="300.6803652968037" transform="translate(72.24,0) rotate(-90,0,294.8356164383562)" style="font-family: 'Open Sans', verdana, arial, sans-serif; font-size: 11.6895px; fill: rgb(77, 77, 77); fill-opacity: 1; white-space: pre;">Pena Blanca</text></g><g class="xtick"><text text-anchor="end" x="0" y="300.6803652968037" transform="translate(100.97999999999999,0) rotate(-90,0,294.8356164383562)" style="font-family: 'Open Sans', verdana, arial, sans-serif; font-size: 11.6895px; fill: rgb(77, 77, 77); fill-opacity: 1; white-space: pre;">SCARP</text></g><g class="xtick"><text text-anchor="end" x="0" y="300.6803652968037" transform="translate(129.72,0) rotate(-90,0,294.8356164383562)" style="font-family: 'Open Sans', verdana, arial, sans-serif; font-size: 11.6895px; fill: rgb(77, 77, 77); fill-opacity: 1; white-space: pre;">Woods Canyon Pueblo</text></g><g class="xtick"><text text-anchor="end" x="0" y="300.6803652968037" transform="translate(158.45999999999998,0) rotate(-90,0,294.8356164383562)" style="font-family: 'Open Sans', verdana, arial, sans-serif; font-size: 11.6895px; fill: rgb(77, 77, 77); fill-opacity: 1; white-space: pre;">San Antonio de Padua (LA 24)</text></g><g class="xtick"><text text-anchor="end" x="0" y="300.6803652968037" transform="translate(187.2,0) rotate(-90,0,294.8356164383562)" style="font-family: 'Open Sans', verdana, arial, sans-serif; font-size: 11.6895px; fill: rgb(77, 77, 77); fill-opacity: 1; white-space: pre;">Sand Canyon Pueblo</text></g><g class="xtick"><text text-anchor="end" x="0" y="300.6803652968037" transform="translate(215.94,0) rotate(-90,0,294.8356164383562)" style="font-family: 'Open Sans', verdana, arial, sans-serif; font-size: 11.6895px; fill: rgb(77, 77, 77); fill-opacity: 1; white-space: pre;">Castle Rock Pueblo</text></g><g class="xtick"><text text-anchor="end" x="0" y="300.6803652968037" transform="translate(244.68,0) rotate(-90,0,294.8356164383562)" style="font-family: 'Open Sans', verdana, arial, sans-serif; font-size: 11.6895px; fill: rgb(77, 77, 77); fill-opacity: 1; white-space: pre;">Yellow Jacket Pueblo</text></g><g class="xtick"><text text-anchor="end" x="0" y="300.6803652968037" transform="translate(273.40999999999997,0) rotate(-90,0,294.8356164383562)" style="font-family: 'Open Sans', verdana, arial, sans-serif; font-size: 11.6895px; fill: rgb(77, 77, 77); fill-opacity: 1; white-space: pre;">Bryant Ranch</text></g><g class="xtick"><text text-anchor="end" x="0" y="300.6803652968037" transform="translate(302.15,0) rotate(-90,0,294.8356164383562)" style="font-family: 'Open Sans', verdana, arial, sans-serif; font-size: 11.6895px; fill: rgb(77, 77, 77); fill-opacity: 1; white-space: pre;">Albert Porter Pueblo</text></g><g class="xtick"><text text-anchor="end" x="0" y="300.6803652968037" transform="translate(330.89,0) rotate(-90,0,294.8356164383562)" style="font-family: 'Open Sans', verdana, arial, sans-serif; font-size: 11.6895px; fill: rgb(77, 77, 77); fill-opacity: 1; white-space: pre;">Shields Pueblo</text></g><g class="xtick"><text text-anchor="end" x="0" y="300.6803652968037" transform="translate(359.63,0) rotate(-90,0,294.8356164383562)" style="font-family: 'Open Sans', verdana, arial, sans-serif; font-size: 11.6895px; fill: rgb(77, 77, 77); fill-opacity: 1; white-space: pre;">Alameda School Site (LA 421)</text></g><g class="xtick"><text text-anchor="end" x="0" y="300.6803652968037" transform="translate(388.37,0) rotate(-90,0,294.8356164383562)" style="font-family: 'Open Sans', verdana, arial, sans-serif; font-size: 11.6895px; fill: rgb(77, 77, 77); fill-opacity: 1; white-space: pre;">Pueblo Blanco</text></g><g class="xtick"><text text-anchor="end" x="0" y="300.6803652968037" transform="translate(417.11,0) rotate(-90,0,294.8356164383562)" style="font-family: 'Open Sans', verdana, arial, sans-serif; font-size: 11.6895px; fill: rgb(77, 77, 77); fill-opacity: 1; white-space: pre;">Pottery Mound (LA 416)</text></g><g class="xtick"><text text-anchor="end" x="0" y="300.6803652968037" transform="translate(445.85,0) rotate(-90,0,294.8356164383562)" style="font-family: 'Open Sans', verdana, arial, sans-serif; font-size: 11.6895px; fill: rgb(77, 77, 77); fill-opacity: 1; white-space: pre;">Pueblo Colorado</text></g><g class="xtick"><text text-anchor="end" x="0" y="300.6803652968037" transform="translate(474.59,0) rotate(-90,0,294.8356164383562)" style="font-family: 'Open Sans', verdana, arial, sans-serif; font-size: 11.6895px; fill: rgb(77, 77, 77); fill-opacity: 1; white-space: pre;">CARP</text></g><g class="xtick"><text text-anchor="end" x="0" y="300.6803652968037" transform="translate(503.32,0) rotate(-90,0,294.8356164383562)" style="font-family: 'Open Sans', verdana, arial, sans-serif; font-size: 11.6895px; fill: rgb(77, 77, 77); fill-opacity: 1; white-space: pre;">Gran Quivira</text></g><g class="xtick"><text text-anchor="end" x="0" y="300.6803652968037" transform="translate(532.06,0) rotate(-90,0,294.8356164383562)" style="font-family: 'Open Sans', verdana, arial, sans-serif; font-size: 11.6895px; fill: rgb(77, 77, 77); fill-opacity: 1; white-space: pre;">OBAP (Ojo Bonito)</text></g><g class="xtick"><text text-anchor="end" x="0" y="300.6803652968037" transform="translate(560.8,0) rotate(-90,0,294.8356164383562)" style="font-family: 'Open Sans', verdana, arial, sans-serif; font-size: 11.6895px; fill: rgb(77, 77, 77); fill-opacity: 1; white-space: pre;">ULCPP</text></g><g class="xtick"><text text-anchor="end" x="0" y="300.6803652968037" transform="translate(589.54,0) rotate(-90,0,294.8356164383562)" style="font-family: 'Open Sans', verdana, arial, sans-serif; font-size: 11.6895px; fill: rgb(77, 77, 77); fill-opacity: 1; white-space: pre;">Chaves-Hummingbird (LA 578)</text></g><g class="xtick"><text text-anchor="end" x="0" y="300.6803652968037" transform="translate(618.28,0) rotate(-90,0,294.8356164383562)" style="font-family: 'Open Sans', verdana, arial, sans-serif; font-size: 11.6895px; fill: rgb(77, 77, 77); fill-opacity: 1; white-space: pre;">Quarai Pueblo</text></g><g class="xtick"><text text-anchor="end" x="0" y="300.6803652968037" transform="translate(647.02,0) rotate(-90,0,294.8356164383562)" style="font-family: 'Open Sans', verdana, arial, sans-serif; font-size: 11.6895px; fill: rgb(77, 77, 77); fill-opacity: 1; white-space: pre;">EMVPP</text></g><g class="xtick"><text text-anchor="end" x="0" y="300.6803652968037" transform="translate(675.76,0) rotate(-90,0,294.8356164383562)" style="font-family: 'Open Sans', verdana, arial, sans-serif; font-size: 11.6895px; fill: rgb(77, 77, 77); fill-opacity: 1; white-space: pre;">RCAP</text></g></g><g class="yaxislayer-above"><path class="ytick ticks crisp" d="M54,0h-3.65296803652968" transform="translate(0,270.40999999999997)" style="stroke: rgb(51, 51, 51); stroke-opacity: 1; stroke-width: 0.664176px;"/><path class="ytick ticks crisp" d="M54,0h-3.65296803652968" transform="translate(0,206.34)" style="stroke: rgb(51, 51, 51); stroke-opacity: 1; stroke-width: 0.664176px;"/><path class="ytick ticks crisp" d="M54,0h-3.65296803652968" transform="translate(0,142.26)" style="stroke: rgb(51, 51, 51); stroke-opacity: 1; stroke-width: 0.664176px;"/><path class="ytick ticks crisp" d="M54,0h-3.65296803652968" transform="translate(0,78.19)" style="stroke: rgb(51, 51, 51); stroke-opacity: 1; stroke-width: 0.664176px;"/><g class="ytick"><text text-anchor="end" x="48.00913242009132" y="4.09132420091325" transform="translate(0,270.40999999999997)" style="font-family: 'Open Sans', verdana, arial, sans-serif; font-size: 11.6895px; fill: rgb(77, 77, 77); fill-opacity: 1; white-space: pre;">0.00</text></g><g class="ytick"><text text-anchor="end" x="48.00913242009132" y="4.09132420091325" transform="translate(0,206.34)" style="font-family: 'Open Sans', verdana, arial, sans-serif; font-size: 11.6895px; fill: rgb(77, 77, 77); fill-opacity: 1; white-space: pre;">0.03</text></g><g class="ytick"><text text-anchor="end" x="48.00913242009132" y="4.09132420091325" transform="translate(0,142.26)" style="font-family: 'Open Sans', verdana, arial, sans-serif; font-size: 11.6895px; fill: rgb(77, 77, 77); fill-opacity: 1; white-space: pre;">0.06</text></g><g class="ytick"><text text-anchor="end" x="48.00913242009132" y="4.09132420091325" transform="translate(0,78.19)" style="font-family: 'Open Sans', verdana, arial, sans-serif; font-size: 11.6895px; fill: rgb(77, 77, 77); fill-opacity: 1; white-space: pre;">0.09</text></g></g><g class="overaxes-above"/></g></g><g class="polarlayer"/><g class="ternarylayer"/><g class="geolayer"/><g class="pielayer"/><g class="sunburstlayer"/><g class="glimages"/><defs id="topdefs-b252c7"><g class="clips"/></defs><g class="layer-above"><g class="imagelayer"/><g class="shapelayer"><path data-index="0" fill-rule="evenodd" d="M55,282H693V27H55Z" style="opacity: 1; stroke: rgb(0, 0, 0); stroke-opacity: 0; fill: rgb(0, 0, 0); fill-opacity: 0; stroke-width: 0px;"/></g></g><g class="infolayer"><g class="g-gtitle"/><g class="g-xtitle"/><g class="g-ytitle"><text class="ytitle" transform="rotate(-90,15.776255707762601,154.5)" x="15.776255707762601" y="154.5" text-anchor="middle" style="font-family: 'Open Sans', verdana, arial, sans-serif; font-size: 14.61px; fill: rgb(0, 0, 0); opacity: 1; font-weight: normal; white-space: pre;">Proportion Affected</text></g></g></svg>